[img]http://img571.imageshack.us/img571/8755/intimea.jpg[/img]

[b][size=200][color=black]PLOT[/color][/size][/b]

[code]In a future where people stop aging at 25, but are engineered 
to live only one more year, having the means to buy your way out of 
the situation is a shot at immortal youth. Here, Will Salas finds himself 
accused of murder and on the run with a hostage - a connection that becomes 
an important part of the way against the system.[/code]

[b][size=200][color=black]IMDB[/color][/size][/b]

[code]http://www.imdb.com/title/tt1637688/[/code]

[b][size=200][color=black]MOVIE INFO[/color][/size][/b]

[code]In Time [2011] BRRip x264 AAC-V3nom

Format                                   : MPEG-4
Format profile                           : Base Media / Version 2
Codec ID                                 : mp42
File size                                : 302 MiB
Duration                                 : 1h 49mn
Overall bit rate mode                    : Variable
Overall bit rate                         : 386 Kbps
Encoded date                             : UTC 2013-01-15 09:23:41
Tagged date                              : UTC 2013-01-15 10:06:03

Video
ID                                       : 1
Format                                   : AVC
Format/Info                              : Advanced Video Codec
Format profile                           : Main@L2.1
Format settings, CABAC                   : Yes
Format settings, ReFrames                : 4 frames
Codec ID                                 : avc1
Codec ID/Info                            : Advanced Video Coding
Duration                                 : 1h 49mn
Bit rate mode                            : Variable
Bit rate                                 : 284 Kbps
Width                                    : 640 pixels
Height                                   : 272 pixels
Display aspect ratio                     : 2.35:1
Frame rate mode                          : Variable
Frame rate                               : 23.976 fps
Minimum frame rate                       : 7.992 fps
Maximum frame rate                       : 23.981 fps
Color space                              : YUV
Chroma subsampling                       : 4:2:0
Bit depth                                : 8 bits
Scan type                                : Progressive
Bits/(Pixel*Frame)                       : 0.068
Stream size                              : 223 MiB (74%)
Writing library                          : x264 core 112

Audio
ID                                       : 2
Format                                   : AAC
Format/Info                              : Advanced Audio Codec
Format profile                           : LC
Codec ID                                 : 40
Duration                                 : 1h 49mn
Bit rate mode                            : Variable
Bit rate                                 : 96.0 Kbps
Maximum bit rate                         : 170 Kbps
Channel(s)                               : 2 channels
Channel positions                        : Front: L R
Sampling rate                            : 48.0 KHz
Compression mode                         : Lossy
Delay relative to video                  : 167ms
Stream size                              : 75.0 MiB (25%)
Encoded date                             : UTC 2013-01-15 09:23:41
Tagged date                              : UTC 2013-01-15 10:05:57[/code]

[b][size=200][color=black]SOURCE[/color][/size][/b]

[code]In Time (2011) 720p BluRay x264 - 700MB - YIFY(Thanks)[/code]

[b][size=200][color=black]SCREENSHOTS[/color][/size][/b]

[img]http://img341.imageshack.us/img341/4255/intime2011brripx264aacv.jpg[/img]

[img]http://kastatic.com/i2/users/133df62bbf28e62494bb17fe11078f1a.gif[/img][img]http://kastatic.com/i2/users/133df62bbf28e62494bb17fe11078f1a.gif[/img]